<svg xmlns="http://www.w3.org/2000/svg" width="11" height="11" fill="none" viewBox="0 0 11 11">
  <g clip-path="url(#a)">
    <path fill="#7F786B" fill-rule="evenodd" d="M3.038 10.022H1.466c-.33 0-.494 0-.594-.072a.464.464 0 0 1-.18-.352c-.007-.132.075-.294.238-.617L4.813 1.27c.165-.328.249-.491.354-.552a.36.36 0 0 1 .363 0c.105.06.189.224.354.552l.798 1.57.004.008c.179.351.27.53.309.716.044.204.044.42 0 .624-.04.188-.13.368-.31.724l-2.04 4.062-.006.01c-.18.355-.27.535-.396.67a1.164 1.164 0 0 1-.484.316c-.165.052-.35.052-.72.052Zm3.972 0h2.253c.332 0 .5 0 .6-.074a.463.463 0 0 0 .18-.354c.006-.128-.074-.284-.23-.588l-.017-.031-1.128-2.176-.013-.025c-.159-.302-.239-.454-.342-.513a.357.357 0 0 0-.36 0c-.103.06-.187.22-.352.54L6.476 8.977l-.004.007c-.164.32-.247.48-.24.612a.469.469 0 0 0 .18.354c.098.072.265.072.598.072Z" clip-rule="evenodd"/>
  </g>
  <defs>
    <clipPath id="a">
      <path fill="#fff" d="M.69.67h9.353v9.353H.69z"/>
    </clipPath>
  </defs>
</svg>
